<?xml version="1.0" encoding="utf-8"?>
<!-- Generator: Adobe Illustrator 24.1.1, SVG Export Plug-In . SVG Version: 6.00 Build 0)  -->
<svg version="1.1" id="Layer_1" xmlns="http://www.w3.org/2000/svg" xmlns:xlink="http://www.w3.org/1999/xlink" x="0px" y="0px"
	 viewBox="0 0 512 512" style="enable-background:new 0 0 512 512;" xml:space="preserve">
<style type="text/css">
	.st0{fill-rule:evenodd;clip-rule:evenodd;fill:#A4C639;}
</style>
<g>
	<path class="st0" d="M120.3,168.8h271.3v221.1c0,13.1-10.6,23.8-23.8,23.8h-27.2V481c0,17.1-13.6,31-30.5,31
		c-16.9,0-30.5-13.9-30.5-31v-67.3h-47.5V481c0,17.1-13.7,31-30.5,31s-30.5-13.9-30.5-31v-67.3h-27.1c-13.1,0-23.8-10.7-23.8-23.8
		V168.8z M67.2,167c-17,0-30.8,14-30.8,31.3v122.2c0,17.2,13.8,31.3,30.8,31.3s30.8-14,30.8-31.3V198.3C98,181,84.2,167,67.2,167z
		 M391.7,146.6H120.3c3.3-38.7,28.4-71.9,64.5-91.2l-25.8-37.9c-3.5-5.1-2.2-12.1,2.9-15.6s12.1-2.2,15.6,2.9l28.1,41.3
		c15.6-5.4,32.5-8.5,50.3-8.5c17.8,0,34.7,3.1,50.3,8.5l28.1-41.3c3.4-5.1,10.4-6.4,15.5-3s6.4,10.4,2.9,15.6l-25.8,37.9
		C363.3,74.6,388.3,107.9,391.7,146.6z M213.8,94c0-8.3-6.7-15-15-15c-8.3,0-15,6.7-15,15c0,8.3,6.7,15,15,15
		C207.1,109,213.8,102.3,213.8,94z M330.1,94c0-8.3-6.7-15-15-15c-8.3,0-15,6.7-15,15c0,8.3,6.7,15,15,15
		C323.4,109,330.1,102.3,330.1,94z M444.8,167c-17,0-30.8,14-30.8,31.3v122.2c0,17.3,13.8,31.3,30.8,31.3c17,0,30.8-14,30.8-31.3
		V198.3C475.6,181,461.9,167,444.8,167z"/>
</g>
</svg>
