<?xml version="1.0" encoding="utf-8"?>
<!-- Generator: Adobe Illustrator 24.1.1, SVG Export Plug-In . SVG Version: 6.00 Build 0)  -->
<svg version="1.1" id="Layer_1" xmlns="http://www.w3.org/2000/svg" xmlns:xlink="http://www.w3.org/1999/xlink" x="0px" y="0px"
	 viewBox="0 0 512 512" style="enable-background:new 0 0 512 512;" xml:space="preserve">
<style type="text/css">
	.st0{fill:url(#SVGID_1_);}
	.st1{fill:#FFFFFF;}
</style>
<g>
	
		<linearGradient id="SVGID_1_" gradientUnits="userSpaceOnUse" x1="-0.4082" y1="511.002" x2="1.5918" y2="511.002" gradientTransform="matrix(1.567548e-14 256 -256 1.567548e-14 131072.5 104.5)">
		<stop  offset="0" style="stop-color:#17C9FB"/>
		<stop  offset="1" style="stop-color:#1A74E8"/>
	</linearGradient>
	<path class="st0" d="M112.1,0h287.7C461.8,0,512,50.2,512,112.1v287.7c0,61.9-50.2,112.1-112.1,112.1H112.1
		C50.2,512,0,461.8,0,399.9V112.1C0,50.2,50.2,0,112.1,0z"/>
	<path class="st1" d="M164.1,371.6L164.1,371.6L146.6,402c-6.4,11.1-20.5,14.9-31.6,8.5c-11.1-6.4-14.9-20.5-8.5-31.6l12.9-22.3
		l1.2-2.1c2.2-3.2,7.7-8.7,18.6-7.6c0,0,25.7,2.8,27.5,16.1C166.8,362.8,167,367.2,164.1,371.6z M412.4,294.2h-54.6
		c-3.7-0.2-5.3-1.6-6-2.3l0-0.1l-58.4-101.2l-0.1,0.1l-3.5-5c-5.7-8.8-14.9,13.7-14.9,13.7c-10.9,25,1.5,53.5,5.9,62.1l81.2,140.6
		c6.4,11.1,20.5,14.9,31.6,8.5s14.9-20.5,8.5-31.6l-20.3-35.2c-0.4-0.9-1.1-3.2,3.1-3.2h27.6c12.8,0,23.1-10.4,23.1-23.1
		S425.2,294.2,412.4,294.2z M306.3,325.6c0,0,2.9,14.8-8.4,14.8h-11.3v0H96.2c-12.8,0-23.1-10.4-23.1-23.1s10.4-23.1,23.1-23.1h51.9
		c8.4-0.5,10.4-5.3,10.4-5.3l0,0l67.7-117.3l0,0c1.2-2.3,0.2-4.4,0-4.7l-22.4-38.7c-6.4-11.1-2.6-25.2,8.5-31.6
		c11.1-6.4,25.2-2.6,31.6,8.5l10.4,18l10.4-17.9c6.4-11.1,20.5-14.9,31.6-8.5c11.1,6.4,14.9,20.5,8.5,31.6l-94.2,163.2
		c-0.4,1-0.5,2.6,2.5,2.8h56.3l0,0.5C269.4,294.7,301.9,295.2,306.3,325.6z"/>
</g>
</svg>
