<?xml version="1.0" encoding="utf-8"?>
<!-- Generator: Adobe Illustrator 24.1.1, SVG Export Plug-In . SVG Version: 6.00 Build 0)  -->
<svg version="1.1" id="Layer_1" xmlns="http://www.w3.org/2000/svg" xmlns:xlink="http://www.w3.org/1999/xlink" x="0px" y="0px"
	 viewBox="0 0 512 512" style="enable-background:new 0 0 512 512;" xml:space="preserve">
<style type="text/css">
	.st0{fill:#EE4323;}
</style>
<g>
	<path class="st0" d="M62,485.1c-8.8,0-11.3-5.1-11.3-12.8c0-2.6,0.3-5.4,0.7-8.5c1.9-13.3,6.6-20.8,18-20.8
		c7.7,0,11.4,3.4,11.4,9.7v3h7.6c0.1,0,0.1-2.8,0.1-3.4c0-9.1-5.5-17.7-19.1-17.7c-18.5,0-26,10-28.8,29.7c-0.4,2.6-0.6,5.1-0.6,7.7
		c0,11.6,4.6,22.1,20.8,22.1c12.4,0,19.7-6,24-13.5l-7.3-4.9C72.8,483.1,67.7,485.1,62,485.1z M111.9,448.5
		c-14.8,0-21.2,7.6-23.3,22.7c-0.2,1.8-0.4,3.6-0.4,5.3c0,9.7,4.6,17.5,17.2,17.5c14.8,0,21.3-7.9,23.4-22.8
		c0.2-1.9,0.4-3.7,0.4-5.4C129.2,455.8,124.5,448.5,111.9,448.5z M118.1,471.2c-1.6,10.9-5,14.3-11.5,14.3c-5.2,0-7.7-2.2-7.7-8.6
		c0-1.6,0.2-3.5,0.5-5.7c1.6-10.9,4.8-14.2,11.3-14.2c5.3,0,7.9,2.2,7.9,8.7C118.6,467.3,118.4,469.1,118.1,471.2z M166.3,435.3
		l-2.5,14.7c-0.2,1.3-0.1,0.9,0.4,2c-2.3-1.8-6.5-2.9-9.3-2.9c-13.3,0-20.7,6-23.1,22.8c-0.3,2-0.4,3.7-0.4,5.4
		c0,12.2,7.2,16.8,16.9,16.8c4.1,0,8.1,0.1,11.2-2.5l0.8,5h7.7l8.9-61.1H166.3z M158.8,483.1c-3.6,2.2-7.1,2.6-9.3,2.6
		c-5.8,0-7.4-3-7.4-7.9c0-1.8,0.2-4,0.6-6.3c1.8-12.7,5.9-14.9,11.2-14.9c3.4,0,6.1,0.6,8.5,1.9L158.8,483.1z M200.3,448.5
		c-14.6,0-21.5,6.9-23.8,22.7c-0.2,1.9-0.4,3.8-0.4,5.5c0,10.8,5.5,17.3,17.6,17.3c9.4,0,16.5-3.9,20.2-11.1l-8.1-3.3
		c-2.3,3.5-5.4,5.9-10.9,5.9c-5.9,0-8.3-1.6-8.3-6.9c0-1,0.1-2.6,0.2-2.6h28.8c0.4-4.1,0.9-7,0.9-9.3
		C216.6,458.7,213.6,448.5,200.3,448.5z M205.8,467.9h-17.6c1.8-4.1,4.7-10.4,10.8-10.4c4.7,0,7,2.8,7,7.5
		C206,465.8,206,467.9,205.8,467.9z M247.3,447.5l1-8.1h-22.5l-1,8.1h5.9l-6.4,40.8h-5.9l-1,8.1H240l1-8.1H235l6.4-40.8H247.3z
		 M293.1,459.7l2.9-8.1h-7.7l-5.6,1.2c-3.1-2-7.4-3.5-11.3-3.5c-11.4,0-21.2,5.5-21.2,18.1c0,3.5,1.3,6.4,2.8,8.3
		c-2.4,1.3-4.5,3.4-4.5,6.3c0,1.3,0.5,2.6,1.4,3.8c-4.8,2.9-7.7,7.7-7.7,13.2c0,10.8,11.3,13.1,19.9,13.1c10.9,0,23.8-2.5,23.8-16.3
		c0-4.7-3-8.4-11.5-10l-15.4-2.9c-1.8-0.3-2.2-0.9-2.2-1.7c0-1.2,0.7-1.8,1.9-1.8l1,0.2c2.1,0.5,4.5,0.7,6.9,0.7
		c11.1,0,21-4.8,21-17.3c0-1.8-0.3-3-1.1-4.9c1.4,0.6,3.1,1.7,3.8,1.7L293.1,459.7L293.1,459.7z M271.1,492.8c3,0.6,4.1,1.7,4.1,3.7
		c0,6.5-6.9,7.3-12,7.3c-7.7,0-10.5-1.8-10.5-5.9c0-3.6,1-5.3,3.4-7.8L271.1,492.8z M267.9,471.9c-4.6,0-7.2-1.7-7.2-5.7
		c0-5.9,3.4-9.3,9.4-9.3c4.8,0,7.1,2,7.1,5.9C277.2,468.7,273.8,471.9,267.9,471.9z M321.5,448.5c-4.5,0-8.5,2.2-13.4,6.1l-0.7-3
		h-8.8l-6.1,44.8H303l4.6-34c3.1-1.9,6.9-4.7,10.2-4.7c4,0,5.4,1.9,5.4,5.6c0,0.9-0.1,3.5-0.2,4.4l-3.9,28.7h10.6l3.9-28.9
		c0.2-1.4,0.3-3.6,0.3-4.9C334,455.1,330.4,448.5,321.5,448.5z M354.2,485.2l0.1-1.1l4.6-32.5h-17.7l-1.1,8.1h7.7
		c-0.6,0-1,0.7-1.1,1.4l-3.2,21.6c-0.2,1-0.2,3.2-0.2,4.1c0,5.6,3,9.6,9.3,9.6h5.4l1.2-8.1h-3.4
		C354.6,488.3,354.2,486.2,354.2,485.2z M361.1,435.3h-10.4c-0.6,0-0.6-2.4-0.7-1.6l-1.4,11.5c-0.1,0.7-0.1,2.3,0.6,2.3h10.4
		c0.6,0,0.6-2.8,0.7-3.5l1.4-8.9C361.7,434.3,361.7,435.3,361.1,435.3z M382.7,485.5c-2.6,0-3.9-1.1-3.9-3.5l0.1-0.2l3.4-22h12.1
		l3.7-8.1h-14.7l2.5-17.9l-11.2,3.6l-2,14.4h-6.5l-1.1,8.1h7.5c-0.7,4.1-1.4,1.4-1.5,2.2l-2.9,19.3c-0.2,0.9-0.2,1.5-0.2,2.3
		c0,7.6,5.6,10.4,12.3,10.4c6.2,0,11.3-1.8,15.2-5.1l-5-6.1C388.1,484.4,386.4,485.5,382.7,485.5z M421.7,448.5
		c-14.6,0-21.5,6.9-23.8,22.7c-0.2,1.9-0.4,3.8-0.4,5.5c0,10.8,5.5,17.3,17.6,17.3c9.4,0,16.5-3.9,20.2-11.1l-8.1-3.3
		c-2.3,3.5-5.4,5.9-10.9,5.9c-5.9,0-8.3-1.6-8.3-6.9c0-1,0.1-2.6,0.2-2.6h28.8c0.4-4.1,0.9-7,0.9-9.3
		C438,458.7,435,448.5,421.7,448.5z M427.2,467.9h-17.6c1.8-4.1,4.7-10.4,10.8-10.4c4.7,0,7,2.8,7,7.5
		C427.4,465.8,427.4,467.9,427.2,467.9z M467.4,448.5c-3.8,0-7.4,2.2-11,5.6l-0.6-2.5h-8.8l-6.2,44.8h10.7l4.7-34.7
		c2.8-1.7,6-3.1,9-3.1c1.9,0,3.8-0.3,5.5-0.1l1.4-9.3C470.5,449,468.9,448.5,467.4,448.5z M196.1,403.2
		c-24.2-10.4-46.8-37-46.9-64.2c-0.1-29.6,18.7-54.8,42.1-71.3c-2.8,10.6-4.3,20.3,2.6,29.8c6.5,8.8,17.8,13.1,28.5,10.8
		c25-5.5,26.1-32.9,11.3-48.9c-14.6-15.8-28.8-33.8-23.2-56.7c2.8-11.5,9.9-22.3,18.8-30c-6.9,18.1,12.7,36,25.6,44.8
		c22.4,15.4,46.9,27.1,67.5,45.2c21.6,19,37.6,44.7,34.4,74.5c-3.5,32.3-29.2,54.8-58,66.1c60.9-13.4,123.7-60.7,125-128.1
		c1.1-55.5-37-98.2-84.2-122.7l-2.5-1.3c1.3,3.1,1.7,5.8,1.7,8.2c0.4-1.8,0.7-3.6,0.8-5.4c0,2.3-0.3,4.5-0.9,6.6l0.1-1.1
		c-0.7,3-1.9,5.8-3.5,8.3l0.7-0.7c-9.4,15.6-34.9,19-47.5,2.8c-20.2-26,0.4-54,3.3-81.6c3.6-34.5-18-68-44.9-88.1
		c14.8,23.9-4.7,55.5-20.3,73.2c-15.1,17.1-33.5,31.5-50.2,47c-17.9,16.7-35.1,34.3-49.9,54C97.3,213.5,79.3,263,92.5,312
		C105.8,361,148.2,392.2,196.1,403.2z"/>
</g>
</svg>
