<?xml version="1.0" encoding="utf-8"?>
<!-- Generator: Adobe Illustrator 24.1.1, SVG Export Plug-In . SVG Version: 6.00 Build 0)  -->
<svg version="1.1" id="Layer_1" xmlns="http://www.w3.org/2000/svg" xmlns:xlink="http://www.w3.org/1999/xlink" x="0px" y="0px"
	 viewBox="0 0 512 512" style="enable-background:new 0 0 512 512;" xml:space="preserve">
<style type="text/css">
	.st0{fill:#264DE4;}
	.st1{fill:#2965F1;}
	.st2{fill:#EBEBEB;}
	.st3{fill:#FFFFFF;}
</style>
<g>
	<polygon class="st0" points="255.8,512 107.6,470.9 74.6,100.6 437.4,100.6 404.3,470.8 	"/>
	<polygon class="st1" points="376,447.2 404.3,130.9 256,130.9 256,480.5 	"/>
	<polygon class="st2" points="150.3,268.2 154.4,313.6 256,313.6 256,268.2 	"/>
	<polygon class="st2" points="142.1,176.3 146.3,221.7 256,221.7 256,176.3 	"/>
	<polygon class="st2" points="256,386.2 255.8,386.2 205.2,372.5 202,336.3 156.4,336.3 162.8,407.6 255.8,433.5 256,433.4 	"/>
	<polygon points="160,0 215,0 215,23 183,23 183,46 215,46 215,69 160,69 	"/>
	<polygon points="226,0 281,0 281,20 249,20 249,24 281,24 281,70 226,70 226,49 258,49 258,45 226,45 	"/>
	<polygon points="292,0 347,0 347,20 315,20 315,24 347,24 347,70 292,70 292,49 324,49 324,45 292,45 	"/>
	<polygon class="st3" points="361.4,268.2 369.6,176.3 255.8,176.3 255.8,221.7 319.8,221.7 315.7,268.2 255.8,268.2 255.8,313.6 
		311.8,313.6 306.5,372.5 255.8,386.2 255.8,433.4 348.9,407.6 349.6,400 360.3,280.4 	"/>
</g>
</svg>
