<?xml version="1.0" encoding="utf-8"?>
<!-- Generator: Adobe Illustrator 24.1.1, SVG Export Plug-In . SVG Version: 6.00 Build 0)  -->
<svg version="1.1" id="Layer_1" xmlns="http://www.w3.org/2000/svg" xmlns:xlink="http://www.w3.org/1999/xlink" x="0px" y="0px"
	 viewBox="0 0 512 512" style="enable-background:new 0 0 512 512;" xml:space="preserve">
<style type="text/css">
	.st0{fill-rule:evenodd;clip-rule:evenodd;fill:#19BCFE;}
	.st1{fill-rule:evenodd;clip-rule:evenodd;fill:#09CF83;}
	.st2{fill-rule:evenodd;clip-rule:evenodd;fill:#A259FF;}
	.st3{fill-rule:evenodd;clip-rule:evenodd;fill:#F24E1E;}
	.st4{fill-rule:evenodd;clip-rule:evenodd;fill:#FF7262;}
</style>
<g>
	<circle class="st0" cx="341.3" cy="256" r="85.3"/>
	<path class="st1" d="M170.7,512c47.1,0,85.3-38.2,85.3-85.3c0-12.9,0-41.3,0-85.3c-38.3,0-66.8,0-85.3,0
		c-47.1,0-85.3,38.2-85.3,85.3S123.5,512,170.7,512z"/>
	<path class="st2" d="M170.7,341.3c15.7,0,44.2,0,85.3,0V170.7c-41.2,0-69.6,0-85.3,0c-47.1,0-85.3,38.2-85.3,85.3
		S123.5,341.3,170.7,341.3z"/>
	<path class="st3" d="M170.7,170.7c15.7,0,44.2,0,85.3,0V0c-41.2,0-69.6,0-85.3,0c-47.1,0-85.3,38.2-85.3,85.3
		S123.5,170.7,170.7,170.7z"/>
	<path class="st4" d="M341.3,170.7H256V0h85.3c47.1,0,85.3,38.2,85.3,85.3S388.5,170.7,341.3,170.7z"/>
</g>
</svg>
