<?xml version="1.0" encoding="utf-8"?>
<!-- Generator: Adobe Illustrator 19.0.0, SVG Export Plug-In . SVG Version: 6.00 Build 0)  -->
<svg version="1.1" id="Layer_1" xmlns="http://www.w3.org/2000/svg" xmlns:xlink="http://www.w3.org/1999/xlink" x="0px" y="0px"
	 viewBox="0 0 500 500" style="enable-background:new 0 0 500 500;" xml:space="preserve">
<style type="text/css">
	.st0{fill:#E24329;}
	.st1{fill:#FC6D26;}
	.st2{fill:#FCA326;}
</style>
<g id="XMLID_23_">
	<polygon id="XMLID_25_" class="st0" points="250,418.1 250,418.1 317.2,211.3 182.8,211.3 	"/>
	<polygon id="XMLID_29_" class="st1" points="250,418.1 182.8,211.3 88.6,211.3 	"/>
	<path id="XMLID_30_" class="st2" d="M88.6,211.3L88.6,211.3l-20.4,62.9c-1.9,5.7,0.2,12,5.1,15.6L250,418.1L88.6,211.3z"/>
	<path id="XMLID_31_" class="st0" d="M88.6,211.3h94.2L142.3,86.7c-2.1-6.4-11.2-6.4-13.2,0L88.6,211.3z"/>
	<polygon id="XMLID_32_" class="st1" points="250,418.1 317.2,211.3 411.4,211.3 	"/>
	<path id="XMLID_33_" class="st2" d="M411.4,211.3L411.4,211.3l20.4,62.9c1.9,5.7-0.2,12-5.1,15.6L250,418.1L411.4,211.3z"/>
	<path id="XMLID_34_" class="st0" d="M411.4,211.3h-94.2l40.5-124.6c2.1-6.4,11.2-6.4,13.2,0L411.4,211.3z"/>
</g>
</svg>
