<?xml version="1.0" encoding="utf-8"?>
<!-- Generator: Adobe Illustrator 24.1.1, SVG Export Plug-In . SVG Version: 6.00 Build 0)  -->
<svg version="1.1" id="Layer_1" xmlns="http://www.w3.org/2000/svg" xmlns:xlink="http://www.w3.org/1999/xlink" x="0px" y="0px"
	 viewBox="0 0 500 500" style="enable-background:new 0 0 500 500;" xml:space="preserve">
<style type="text/css">
	.st0{fill:url(#SVGID_1_);}
	.st1{fill:url(#SVGID_2_);}
	.st2{fill:url(#SVGID_3_);}
	.st3{fill:url(#SVGID_4_);}
	.st4{fill:#CCCCCC;}
	.st5{fill:url(#SVGID_5_);}
	.st6{fill:url(#SVGID_6_);}
	.st7{fill:url(#SVGID_7_);}
	.st8{fill:url(#SVGID_8_);}
	.st9{fill:url(#SVGID_9_);}
	.st10{fill:url(#SVGID_10_);}
	.st11{fill:#FFFFFF;}
	.st12{fill:url(#SVGID_11_);}
	.st13{fill:url(#SVGID_12_);}
	.st14{fill:url(#SVGID_13_);}
</style>
<g>
	
		<linearGradient id="SVGID_1_" gradientUnits="userSpaceOnUse" x1="0.0956" y1="0.2377" x2="0.2873" y2="0.2377" gradientTransform="matrix(-1240.8251 1240.2499 640.2 2403.832 220.0914 -600.8565)">
		<stop  offset="0" style="stop-color:#00A0FF"/>
		<stop  offset="7.000001e-03" style="stop-color:#00A1FF"/>
		<stop  offset="0.26" style="stop-color:#00BEFF"/>
		<stop  offset="0.512" style="stop-color:#00D2FF"/>
		<stop  offset="0.76" style="stop-color:#00DFFF"/>
		<stop  offset="1" style="stop-color:#00E3FF"/>
	</linearGradient>
	<path class="st0" d="M86.23,93.03c0,0.01,0,0.02,0,0.03C86.23,93.05,86.23,93.04,86.23,93.03 M93.72,74.28
		c-4.7,4.29-7.49,11.43-7.49,20.89v-2.05l0,0v313.71c0,8.82,2.36,15.61,6.61,19.86l0.01,0.01l176.73-176.73v-0.02l-0.02,0.02
		L93.72,74.28 M93.28,72.6l-0.59,0.5c-4.09,4.39-6.44,11.15-6.46,19.92C86.25,83.9,88.87,76.93,93.28,72.6"/>
	
		<linearGradient id="SVGID_2_" gradientUnits="userSpaceOnUse" x1="0.3834" y1="0.0103" x2="0.5751" y2="0.0103" gradientTransform="matrix(-1790.5916 0 0 1507.6603 1111.1774 234.0244)">
		<stop  offset="0" style="stop-color:#FFE000"/>
		<stop  offset="0.409" style="stop-color:#FFBD00"/>
		<stop  offset="0.775" style="stop-color:#FFA500"/>
		<stop  offset="1" style="stop-color:#FF9C00"/>
	</linearGradient>
	<path class="st1" d="M328.24,189.27l-0.06,0.06l1.31,0.74l-0.01,0.01l69.38,39.41c9.93,5.68,14.82,13.1,14.82,20.5
		c-0.79-6.79-5.83-13.4-14.82-18.44l-70.68-40.16l-58.58,58.56v0.02l58.58,58.6l70.69-40.15c8.99-5.2,14.03-11.66,14.67-18.44l0,0
		l0,0c0,7.42-4.89,14.82-14.82,20.5l-69.18,39.31l0.07,0.06l69.29-39.37c19.86-11.35,19.86-29.8,0-40.99l-69.37-39.42L328.24,189.27
		"/>
	
		<linearGradient id="SVGID_3_" gradientUnits="userSpaceOnUse" x1="-0.0124" y1="-0.0776" x2="0.1793" y2="-0.0776" gradientTransform="matrix(-1685.2433 1683.4413 2183.9084 1299.051 444.7816 403.7509)">
		<stop  offset="0" style="stop-color:#FF3A44"/>
		<stop  offset="1" style="stop-color:#C31162"/>
	</linearGradient>
	<path class="st2" d="M269.59,249.97L269.59,249.97L92.86,426.7l-0.16,0.16c3.43,3.69,8.11,5.64,13.57,5.64
		c4.81,0,10.23-1.52,15.92-4.7l89.54-50.93l-89.39,50.78c-5.68,3.26-11.05,4.8-15.83,4.8c-4.91,0-9.19-1.62-12.54-4.65l-1.11-0.94
		l1.11-1.11c3.35,3.04,7.63,4.66,12.53,4.66c4.78,0,10.16-1.54,15.85-4.81l205.78-116.92l-0.06-0.06l0.1-0.06L269.59,249.97"/>
	
		<linearGradient id="SVGID_4_" gradientUnits="userSpaceOnUse" x1="1.45" y1="-0.1936" x2="1.6417" y2="-0.1936" gradientTransform="matrix(752.5035 751.0217 974.7965 -579.7583 -854.6064 -1232.4192)">
		<stop  offset="0" style="stop-color:#32A071"/>
		<stop  offset="0.069" style="stop-color:#2DA771"/>
		<stop  offset="0.476" style="stop-color:#15CF74"/>
		<stop  offset="0.801" style="stop-color:#06E775"/>
		<stop  offset="1" style="stop-color:#00F076"/>
	</linearGradient>
	<path class="st3" d="M122.18,72.31l207.29,117.77l0.01-0.01l-1.31-0.74L122.18,72.31 M121.18,71.76c0.33,0.18,0.66,0.36,1,0.55
		C121.85,72.12,121.52,71.94,121.18,71.76 M106.28,69.62c-4.93,0-9.22,1.61-12.56,4.66l175.84,175.69l0.02-0.02l58.58-58.56
		L122.18,74.36C116.47,71.14,111.07,69.62,106.28,69.62"/>
	<path class="st4" d="M329.58,309.84l-0.08,0.05c-0.02,0-1.28,0.79-1.28,0.79l-0.04-0.04l-116.45,66.24l117.92-66.98L329.58,309.84"
		/>
	
		<linearGradient id="SVGID_5_" gradientUnits="userSpaceOnUse" x1="0.3834" y1="0.0505" x2="0.5751" y2="0.0505" gradientTransform="matrix(-1790.5916 0 0 1507.6603 1111.1774 234.0244)">
		<stop  offset="0" style="stop-color:#CCB300"/>
		<stop  offset="0.409" style="stop-color:#CC9700"/>
		<stop  offset="0.775" style="stop-color:#CC8400"/>
		<stop  offset="1" style="stop-color:#CC7D00"/>
	</linearGradient>
	<path class="st5" d="M329.52,309.78l-0.09,0.05l0.06,0.06l-1.31,0.74l0.04,0.04c0,0,1.27-0.79,1.28-0.79l0.08-0.05L329.52,309.78"
		/>
	
		<linearGradient id="SVGID_6_" gradientUnits="userSpaceOnUse" x1="-0.0124" y1="-0.0772" x2="0.1793" y2="-0.0772" gradientTransform="matrix(-1685.2433 1683.4413 2183.9084 1299.051 444.7816 403.7509)">
		<stop  offset="0" style="stop-color:#CC2E36"/>
		<stop  offset="1" style="stop-color:#9C0E4E"/>
	</linearGradient>
	<path class="st6" d="M328.12,308.68L122.34,425.6c-5.68,3.27-11.06,4.81-15.85,4.81c-4.9,0-9.18-1.62-12.53-4.66l-1.11,1.11
		l1.11,0.94c3.35,3.03,7.64,4.65,12.54,4.65c4.78,0,10.16-1.54,15.83-4.8l89.39-50.78l116.45-66.24l1.31-0.74l-0.06-0.06l-0.1,0.06
		L328.12,308.68"/>
	
		<linearGradient id="SVGID_7_" gradientUnits="userSpaceOnUse" x1="0.3834" y1="0.0304" x2="0.5751" y2="0.0304" gradientTransform="matrix(-1790.5916 0 0 1507.6603 1111.1774 234.0244)">
		<stop  offset="0" style="stop-color:#E0C500"/>
		<stop  offset="0.409" style="stop-color:#E0A600"/>
		<stop  offset="0.775" style="stop-color:#E09100"/>
		<stop  offset="1" style="stop-color:#E08900"/>
	</linearGradient>
	<path class="st7" d="M413.52,249.97c-0.63,6.79-5.68,13.25-14.67,18.44l-70.69,40.15l0.06,0.06l1.29,1.15l69.18-39.31
		C408.63,264.79,413.52,257.39,413.52,249.97"/>
	
		<linearGradient id="SVGID_8_" gradientUnits="userSpaceOnUse" x1="-0.0124" y1="-0.0608" x2="0.1793" y2="-0.0608" gradientTransform="matrix(-1685.2433 1683.4413 2183.9084 1299.051 444.7816 403.7509)">
		<stop  offset="0" style="stop-color:#E0333C"/>
		<stop  offset="1" style="stop-color:#AB0F56"/>
	</linearGradient>
	<polyline class="st8" points="328.16,308.57 328.06,308.62 328.12,308.68 328.22,308.62 328.22,308.63 328.16,308.57 	"/>
	
		<linearGradient id="SVGID_9_" gradientUnits="userSpaceOnUse" x1="0.3834" y1="0.0499" x2="0.5751" y2="0.0499" gradientTransform="matrix(-1790.5916 0 0 1507.6603 1111.1774 234.0244)">
		<stop  offset="0" style="stop-color:#B39D00"/>
		<stop  offset="0.409" style="stop-color:#B38500"/>
		<stop  offset="0.775" style="stop-color:#B37400"/>
		<stop  offset="1" style="stop-color:#B36E00"/>
	</linearGradient>
	<polyline class="st9" points="328.22,308.63 329.43,309.83 329.52,309.78 328.22,308.63 	"/>
	
		<linearGradient id="SVGID_10_" gradientUnits="userSpaceOnUse" x1="-0.0124" y1="-0.0604" x2="0.1793" y2="-0.0604" gradientTransform="matrix(-1685.2433 1683.4413 2183.9084 1299.051 444.7816 403.7509)">
		<stop  offset="0" style="stop-color:#B3282F"/>
		<stop  offset="1" style="stop-color:#890C45"/>
	</linearGradient>
	<polyline class="st10" points="328.22,308.62 328.12,308.68 329.33,309.89 329.43,309.83 328.22,308.63 328.22,308.62 	"/>
	<path class="st11" d="M86.23,93.06c0,0.02,0,0.03,0,0.05l0,0C86.23,93.1,86.23,93.08,86.23,93.06 M86.23,93.02c0,0,0,0.01,0,0.01
		C86.23,93.03,86.23,93.02,86.23,93.02 M106.26,67.5c-5.14,0-9.59,1.77-12.98,5.1l0.47-0.4c3.33-3.03,7.64-4.65,12.59-4.65
		c4.51,0,9.55,1.35,14.85,4.21C115.84,68.87,110.78,67.5,106.26,67.5"/>
	
		<linearGradient id="SVGID_11_" gradientUnits="userSpaceOnUse" x1="0.0956" y1="0.1822" x2="0.2873" y2="0.1822" gradientTransform="matrix(-1240.8251 1240.2499 640.2 2403.832 220.0914 -600.8565)">
		<stop  offset="0" style="stop-color:#40B8FF"/>
		<stop  offset="7.000001e-03" style="stop-color:#40B9FF"/>
		<stop  offset="0.26" style="stop-color:#40CEFF"/>
		<stop  offset="0.512" style="stop-color:#40DDFF"/>
		<stop  offset="0.76" style="stop-color:#40E7FF"/>
		<stop  offset="1" style="stop-color:#40EAFF"/>
	</linearGradient>
	<path class="st12" d="M93.75,72.2l-0.47,0.4c-4.42,4.33-7.03,11.3-7.05,20.42c0,0,0,0.01,0,0.01c0,0.01,0,0.02,0,0.03
		c0,0.02,0,0.03,0,0.05v2.05c0-9.46,2.79-16.59,7.49-20.89l-1.03-1.03C93.03,72.88,93.39,72.53,93.75,72.2"/>
	
		<linearGradient id="SVGID_12_" gradientUnits="userSpaceOnUse" x1="0.3834" y1="-9.279417e-03" x2="0.5751" y2="-9.279417e-03" gradientTransform="matrix(-1790.5916 0 0 1507.6603 1111.1774 234.0244)">
		<stop  offset="0" style="stop-color:#FFE840"/>
		<stop  offset="0.409" style="stop-color:#FFCE40"/>
		<stop  offset="0.775" style="stop-color:#FFBC40"/>
		<stop  offset="1" style="stop-color:#FFB540"/>
	</linearGradient>
	<path class="st13" d="M329.48,190.08l-1.31,1.31l70.68,40.16c8.99,5.04,14.03,11.66,14.82,18.44c0-7.4-4.89-14.82-14.82-20.5
		L329.48,190.08"/>
	
		<linearGradient id="SVGID_13_" gradientUnits="userSpaceOnUse" x1="1.45" y1="-0.1935" x2="1.6417" y2="-0.1935" gradientTransform="matrix(752.5035 751.0217 974.7965 -579.7583 -854.6064 -1232.4192)">
		<stop  offset="0" style="stop-color:#65B895"/>
		<stop  offset="0.069" style="stop-color:#62BD95"/>
		<stop  offset="0.476" style="stop-color:#50DB97"/>
		<stop  offset="0.801" style="stop-color:#44ED98"/>
		<stop  offset="1" style="stop-color:#40F498"/>
	</linearGradient>
	<path class="st14" d="M106.34,67.55c-4.94,0-9.26,1.62-12.59,4.65c-0.37,0.33-0.72,0.68-1.06,1.05l1.03,1.03
		c3.33-3.05,7.63-4.66,12.56-4.66c4.79,0,10.19,1.52,15.9,4.74l205.99,117.03l1.31-1.31L122.18,72.31l0,0
		c-0.33-0.19-0.67-0.38-1-0.55C115.89,68.9,110.85,67.55,106.34,67.55"/>
</g>
</svg>
