<?xml version="1.0" encoding="utf-8"?>
<!-- Generator: Adobe Illustrator 19.0.0, SVG Export Plug-In . SVG Version: 6.00 Build 0)  -->
<svg version="1.1" id="Layer_1" xmlns="http://www.w3.org/2000/svg" xmlns:xlink="http://www.w3.org/1999/xlink" x="0px" y="0px"
	 viewBox="0 0 500 500" style="enable-background:new 0 0 500 500;" xml:space="preserve">
<style type="text/css">
	.st0{fill:#FFC627;}
	.st1{fill:#232323;}
</style>
<g id="XMLID_1_">
	<circle id="XMLID_2_" class="st0" cx="250" cy="284" r="124.4"/>
	<path id="XMLID_3_" class="st1" d="M299.5,321.4L253,230.6c-4.1-8-13.9-11.2-21.9-7.1c-8,4.1-11.2,13.9-7.1,21.9l19.4,37.9
		L208.6,318c-6.4,6.4-6.4,16.7,0,23.1c3.2,3.2,7.4,4.8,11.5,4.8s8.3-1.6,11.5-4.8l27.4-27.3l11.5,22.4c2.9,5.6,8.6,8.9,14.5,8.9
		c2.5,0,5-0.6,7.4-1.8C300.4,339.2,303.6,329.4,299.5,321.4"/>
	<path id="XMLID_4_" class="st1" d="M362.1,68.6c-9.3,5.9,6.4,59.6-30.8,91.3c-23.5-15.2-51.4-24.1-81.5-24.1
		c-30,0-57.9,8.9-81.3,24c-37-31.7-21.4-85.3-30.6-91.2c-15.1-9.7-43.6,45.8-41.4,81.1c1.2,18.8,6.2,46.5,19.9,67.8
		c-10.2,20.1-16.1,42.6-16.1,66.6c0,81.8,67.1,148.4,149.5,148.4c82.5,0,149.5-66.6,149.5-148.4c0-23.8-5.8-46.3-15.9-66.2
		c13.9-21.5,18.9-49.3,20.1-68.2C405.7,114.4,377.2,59,362.1,68.6 M249.8,399.8c-64.2,0-116.5-51.9-116.5-115.6
		c0-63.8,52.3-115.6,116.5-115.6c64.3,0,116.6,51.9,116.6,115.6C366.4,347.9,314.1,399.8,249.8,399.8"/>
</g>
</svg>
