<?xml version="1.0" encoding="utf-8"?>
<!-- Generator: Adobe Illustrator 24.1.1, SVG Export Plug-In . SVG Version: 6.00 Build 0)  -->
<svg version="1.1" id="Layer_1" xmlns="http://www.w3.org/2000/svg" xmlns:xlink="http://www.w3.org/1999/xlink" x="0px" y="0px"
	 viewBox="0 0 512 512" style="enable-background:new 0 0 512 512;" xml:space="preserve">
<style type="text/css">
	.st0{fill:#333333;}
</style>
<g id="XMLID_1_">
	<path id="XMLID_3_" class="st0" d="M239.2,189L239.2,189c-7.4-0.9-14.9-1.9-23.3,0c-17.7,4.7-30.7,20.5-35.4,43.8
		c-3.7,15.8-2.8,35.4,2.8,50.3c7.4,23.3,24.2,36.3,44.7,35.4c20.5,0,37.2-13,44.7-35.4c4.7-14.9,5.6-33.5,2.8-50.3
		C270,209.5,256.9,193.6,239.2,189z"/>
	<path id="XMLID_9_" class="st0" d="M256,0C114.5,0,0,114.5,0,256s114.5,256,256,256s256-114.5,256-256S397.5,0,256,0z M127.5,344.4
		H95V216h32.6V344.4z M110.8,197.4c-9.3,0-17.7-7.4-17.7-17.7c0-9.3,7.4-17.7,17.7-17.7c9.3,0,17.7,7.4,17.7,17.7
		C128.5,189,121,197.4,110.8,197.4z M264.4,337c-8.4,3.7-15.8,5.6-27.9,7.4c-5.6,0.9-12.1,0-17.7,0c-12.1-1.9-20.5-3.7-27.9-7.4
		c-29.8-14-45.6-43.8-45.6-82.9c0-39.1,16.8-69.8,46.5-83.8c11.2-5.6,23.3-8.4,36.3-8.4c14,0,25.1,2.8,36.3,8.4
		c28.9,14.9,46.5,45.6,46.5,83.8C310.9,293.2,294.2,323,264.4,337z M430.1,312.8c-8.4,17.7-25.1,28.9-51.2,31.7
		c-4.7,0.9-15.8,0.9-20.5,0l0,0c-14-2.8-27.9-4.7-39.1-11.2l7.4-26.1c18.6,6.5,44.7,14.9,62.4,7.4c9.3-4.7,14-14,13-24.2
		c-1.9-11.2-9.3-17.7-31.7-26.1c-24.2-9.3-38.2-20.5-44.7-34.4c-2.8-7.4-3.7-15.8-2.8-24.2c3.7-22.3,20.5-37.2,47.5-41.9
		c7.4-0.9,24.2-0.9,31.7,0c11.2,1.9,25.1,6.5,25.1,8.4l-7.4,25.1c-11.2-4.7-24.2-7.4-35.4-7.4c-15.8,0-31.7,9.3-28.9,25.1
		c1.9,10.2,8.4,14.9,32.6,25.1c17.7,7.4,26.1,12.1,33.5,19.5c10.2,10.2,13,21.4,13,33.5C433.8,300.7,432.9,305.3,430.1,312.8z"/>
</g>
</svg>
