<?xml version="1.0" encoding="utf-8"?>
<!-- Generator: Adobe Illustrator 19.0.0, SVG Export Plug-In . SVG Version: 6.00 Build 0)  -->
<svg version="1.1" id="Layer_1" xmlns="http://www.w3.org/2000/svg" xmlns:xlink="http://www.w3.org/1999/xlink" x="0px" y="0px"
	 viewBox="0 0 500 500" style="enable-background:new 0 0 500 500;" xml:space="preserve">
<style type="text/css">
	.st0{fill:#009900;}
</style>
<g id="XMLID_1_">
	<path id="XMLID_3_" class="st0" d="M83.4,280.2v-41.3l46.9,46.9c2.3,2.3,5.7,2.9,8.6,1.7s4.9-4.1,4.9-7.3v-60.5
		c0-4.4-3.6-7.9-7.9-7.9c-4.4,0-7.9,3.6-7.9,7.9l0,41.3L81,214.1c-2.3-2.3-5.7-2.9-8.6-1.7c-3,1.2-4.9,4.1-4.9,7.3v60.5
		c0,4.4,3.6,7.9,7.9,7.9C79.8,288.1,83.4,284.5,83.4,280.2L83.4,280.2z"/>
	<path id="XMLID_4_" class="st0" d="M172.6,211.8l-2.2,4.1l-16.9,30.6l-2.2,3.9l2.2,3.9l16.9,29.6l2.3,4.1h4.7h34.5h5l2.2-4.5
		l12.6-25.4l5.6-11.5h-12.8l-32.2,0.1c-4.2-0.1-8,3.7-8,7.9c0,4.2,3.9,8,8,7.9l19.4-0.1l-4.8,9.6h-25l-12.4-21.8l12.5-22.6h26.6
		l6.2,12.7h16l-10.1-24.1l-2.2-4.5h-5h-36.2H172.6z"/>
	<path id="XMLID_5_" class="st0" d="M252.9,211.7c-4.2,0.1-7.9,3.9-7.8,8v20.7H261v-20.7C261,215.6,257.2,211.7,252.9,211.7z"/>
	<path id="XMLID_6_" class="st0" d="M346.8,280.3v-60.5c0-3.2-1.9-6.1-4.9-7.3c-3-1.2-6.4-0.5-8.6,1.7l-46.9,46.9l0-41.3
		c0-4.4-3.6-7.9-7.9-7.9c-4.4,0-7.9,3.6-7.9,7.9l0,60.5c0,3.2,1.9,6.1,4.9,7.3c3,1.2,6.4,0.5,8.6-1.7l46.9-46.9v41.3
		c0,4.4,3.6,7.9,7.9,7.9C343.2,288.3,346.8,284.7,346.8,280.3L346.8,280.3z"/>
	<path id="XMLID_7_" class="st0" d="M358.4,225.4l60.5,60.3c3.1,3.1,8.1,3.1,11.2,0c3.1-3.1,3.1-8.1,0-11.2l-60.5-60.3
		c-3.1-3.1-8.1-3.1-11.2,0C355.3,217.3,355.3,222.4,358.4,225.4"/>
	<path id="XMLID_8_" class="st0" d="M419,214.2l-60.5,60.3c-3.1,3.1-3.1,8.1,0,11.2c3.1,3.1,8.1,3.1,11.2,0l60.5-60.3
		c3.1-3.1,3.1-8.1,0-11.2C427.1,211.1,422.1,211.1,419,214.2"/>
	<path id="XMLID_9_" class="st0" d="M252.9,288c-4.2-0.1-7.9-3.9-7.8-8v-33.2H261V280C261,284.2,257.2,288.1,252.9,288z"/>
</g>
</svg>
