<?xml version="1.0" encoding="utf-8"?>
<!-- Generator: Adobe Illustrator 24.1.1, SVG Export Plug-In . SVG Version: 6.00 Build 0)  -->
<svg version="1.1" id="Layer_1" xmlns="http://www.w3.org/2000/svg" xmlns:xlink="http://www.w3.org/1999/xlink" x="0px" y="0px"
	 viewBox="0 0 500 500" style="enable-background:new 0 0 500 500;" xml:space="preserve">
<style type="text/css">
	.st0{fill:#001E36;}
	.st1{fill:#31A8FF;}
</style>
<g id="Layer_2_1_">
	<g id="Surfaces">
		<g id="Photo_Surface">
			<g id="Outline_no_shadow">
				<path class="st0" d="M88.5,6.3h322.9c49,0,88.5,39.6,88.5,88.5v310.4c0,49-39.6,88.5-88.5,88.5H88.5c-49,0-88.5-39.6-88.5-88.5
					V94.8C0,45.8,39.6,6.3,88.5,6.3z"/>
			</g>
		</g>
	</g>
	<g id="Outlined_Mnemonics_Logos">
		<g id="Ps">
			<path class="st1" d="M112.5,348.1V133.8c0-1.5,0.6-2.3,2.1-2.3c3.5,0,6.9,0,11.7-0.2c5-0.2,10.2-0.2,15.8-0.4
				c5.6-0.2,11.7-0.2,18.1-0.4c6.5-0.2,12.7-0.2,19-0.2c17.1,0,31.3,2.1,42.9,6.5c10.4,3.5,20,9.4,27.9,17.1
				c6.7,6.7,11.9,14.8,15.2,23.8c3.1,8.7,4.8,17.7,4.8,27.1c0,17.9-4.2,32.7-12.5,44.4c-8.3,11.7-20,20.4-33.5,25.4
				c-14.2,5.2-29.8,7.1-46.9,7.1c-5,0-8.3,0-10.4-0.2c-2.1-0.2-5-0.2-9-0.2v66.9c0.2,1.5-0.8,2.7-2.3,2.9c-0.2,0-0.4,0-0.8,0H115
				C113.3,350.8,112.5,350,112.5,348.1z M157.9,171.7v70c2.9,0.2,5.6,0.4,8.1,0.4h11c8.1,0,16.3-1.3,24-3.8
				c6.7-1.9,12.5-5.8,17.1-11c4.4-5.2,6.5-12.3,6.5-21.5c0.2-6.5-1.5-12.9-4.8-18.5c-3.5-5.4-8.5-9.6-14.6-11.9
				c-7.7-3.1-16-4.4-24.6-4.2c-5.4,0-10.2,0-14.2,0.2C162.3,171.3,159.4,171.5,157.9,171.7L157.9,171.7z"/>
			<path class="st1" d="M400,229c-6.3-3.3-12.9-5.6-20-7.1c-7.7-1.7-15.4-2.7-23.3-2.7c-4.2-0.2-8.5,0.4-12.5,1.5
				c-2.7,0.6-5,2.1-6.5,4.2c-1,1.7-1.7,3.8-1.7,5.6c0,1.9,0.8,3.8,2.1,5.4c1.9,2.3,4.4,4.2,7.1,5.6c4.8,2.5,9.8,4.8,14.8,6.9
				c11.3,3.8,22.1,9,32.1,15.2c6.9,4.4,12.5,10.2,16.5,17.3c3.3,6.7,5,14,4.8,21.5c0.2,9.8-2.7,19.6-8.1,27.7
				c-5.8,8.3-14,14.8-23.3,18.5c-10.2,4.4-22.7,6.7-37.7,6.7c-9.6,0-19-0.8-28.3-2.7c-7.3-1.3-14.6-3.5-21.3-6.7
				c-1.5-0.8-2.5-2.3-2.3-4v-36.2c0-0.6,0.2-1.5,0.8-1.9c0.6-0.4,1.3-0.2,1.9,0.2c8.1,4.8,16.7,8.1,25.8,10.2
				c7.9,2.1,16.3,3.1,24.6,3.1c7.9,0,13.5-1,17.3-2.9c3.3-1.5,5.6-5,5.6-8.8c0-2.9-1.7-5.6-5-8.3c-3.3-2.7-10.2-5.8-20.4-9.8
				c-10.6-3.8-20.4-8.8-29.6-15c-6.5-4.6-11.9-10.6-15.8-17.7c-3.3-6.7-5-14-4.8-21.2c0-9,2.5-17.5,7.1-25.2
				c5.2-8.3,12.9-15,21.9-19.2c9.8-5,22.1-7.3,36.9-7.3c8.5,0,17.3,0.6,25.8,1.9c6.3,0.8,12.3,2.5,17.9,4.8c0.8,0.2,1.7,1,2.1,1.9
				c0.2,0.8,0.4,1.7,0.4,2.5v34c0,0.8-0.4,1.7-1,2.1C401.9,229.4,400.8,229.4,400,229z"/>
		</g>
	</g>
</g>
</svg>
