<?xml version="1.0" encoding="utf-8"?>
<!-- Generator: Adobe Illustrator 24.1.1, SVG Export Plug-In . SVG Version: 6.00 Build 0)  -->
<svg version="1.1" id="Layer_1" xmlns="http://www.w3.org/2000/svg" xmlns:xlink="http://www.w3.org/1999/xlink" x="0px" y="0px"
	 viewBox="0 0 512 512" style="enable-background:new 0 0 512 512;" xml:space="preserve">
<style type="text/css">
	.st0{fill:#F15A24;}
	.st1{fill:#999999;}
	.st2{fill:#FFFFFF;}
	.st3{fill:#666666;}
	.st4{fill:#FF931E;}
</style>
<g>
	<polygon class="st0" points="96.8,498.2 7.3,501.3 53.2,454.7 96.8,498.2 	"/>
	<path class="st0" d="M502.8,266.8c-16.6,129.7-135.2,221.3-264.9,204.6C108.3,454.8,16.7,336.2,33.3,206.6
		C49.9,76.9,168.5-14.7,298.2,2C427.8,18.6,519.4,137.2,502.8,266.8"/>
	<path class="st1" d="M328.4,169.4c15.6,16.5,0.2,55.6,0.2,55.6s-15.2,55.3-102,126.9L210.3,336l110.3-112.7l2.1-2.9
		C325.7,215.7,328.1,169.1,328.4,169.4"/>
	<path class="st2" d="M328.4,169.4l-1.4,1.3c2.4,2.5,4,5.7,5,9.2c1,3.5,1.4,7.5,1.4,11.5c0,8-1.7,16.2-3.3,22.5
		c-0.8,3.1-1.7,5.8-2.3,7.6c-0.3,0.9-0.6,1.6-0.8,2.1c-0.1,0.2-0.2,0.4-0.2,0.6l-0.1,0.2l-0.1,0.2l0,0c-0.4,1.4-16.2,55.6-101.4,126
		l1.2,1.4l1.3-1.3L213,336l109-111.4l0.2-0.2l2.1-2.9l0.1-0.1c0.3-0.6,0.5-1.1,0.7-1.8c0.4-1.3,0.7-2.9,1-5c1.1-7,2.1-18.3,2.8-27.8
		c0.4-4.8,0.7-9.1,0.9-12.2c0.1-1.6,0.2-2.8,0.3-3.7c0-0.4,0.1-0.8,0.1-1l0-0.1l0,0l-1.6-0.3l1.5,0.6l0.1-0.2l-1.6-0.3l1.5,0.6
		L328.4,169.4l1.5,1.1c0.2-0.2,0.2-0.3,0.2-0.4L328.4,169.4l1.5,1.1L328.4,169.4l1.1,1.5c0.2-0.2,0.3-0.3,0.4-0.4L328.4,169.4
		l1.1,1.5L328.4,169.4l0,1.9c0.5,0,0.9-0.2,1.1-0.3L328.4,169.4l0,1.9L328.4,169.4l-0.9,1.6c0.3,0.2,0.6,0.2,0.9,0.2L328.4,169.4
		l-0.9,1.6L328.4,169.4l-1.5,1.1c0.1,0.2,0.3,0.3,0.6,0.5L328.4,169.4l-1.5,1.1l0.1,0.1L328.4,169.4l1.5-1.1
		c-0.1-0.2-0.3-0.3-0.6-0.5c-0.3-0.2-0.6-0.2-0.9-0.2c-0.4,0-0.7,0.1-0.9,0.3c-0.4,0.3-0.6,0.5-0.7,0.7c-0.2,0.3-0.2,0.4-0.2,0.5
		l-0.1,0.3c0,0.3-0.1,0.6-0.1,1.1c-0.3,3.5-1,14.9-2,26c-0.5,5.5-1,11-1.6,15.3c-0.3,2.1-0.6,4-0.9,5.4c-0.2,0.7-0.3,1.3-0.4,1.7
		c-0.1,0.4-0.3,0.7-0.3,0.8l1.6,1l-1.5-1.1l-2.1,2.8L209,334.7c-0.7,0.7-0.7,1.9,0,2.6l16.2,15.9c0.7,0.7,1.8,0.7,2.5,0.1
		c87.1-71.9,102.6-127.5,102.6-127.9l-1.8-0.5l1.7,0.7c0,0,1.7-4.4,3.4-10.9c1.7-6.5,3.4-15,3.4-23.5c0-4.3-0.4-8.6-1.6-12.5
		c-1.1-4-3-7.7-5.9-10.7L328.4,169.4l1.5-1.1L328.4,169.4z"/>
	<path class="st3" d="M186.5,312.6L328.2,169c7.2,8.5,8.7,17.7,6.6,30.8c-1.4,9.1-17.1,27.2-17.1,27.2L210.3,336"/>
	<path class="st2" d="M187.4,313.4L329,169.8l-0.8-0.8l-0.9,0.8c5.1,6.1,7.2,12.3,7.2,20.3c0,2.9-0.3,6.1-0.8,9.6l0,0
		c-0.3,2-1.5,4.8-3.1,7.7c-2.5,4.4-5.9,9.1-8.7,12.8c-1.4,1.8-2.7,3.4-3.6,4.5c-0.4,0.5-0.8,1-1.1,1.3c-0.2,0.3-0.4,0.4-0.4,0.4
		l0.9,0.8l-0.8-0.8l-107.4,109c-0.5,0.5-0.4,1.2,0,1.7s1.2,0.4,1.7,0l107.4-109l0.1-0.1c0,0,3.9-4.6,8.1-10.3c2.1-2.9,4.2-6,5.9-9
		c1.7-3,3-5.9,3.4-8.5l0,0c0.6-3.6,0.9-6.9,0.9-9.9c0-8.4-2.3-15.4-7.8-21.8c-0.2-0.3-0.5-0.4-0.8-0.4c-0.3,0-0.6,0.1-0.9,0.3
		L185.7,311.8c-0.5,0.5-0.4,1.2,0,1.7C186.2,313.9,186.9,313.9,187.4,313.4L187.4,313.4z"/>
	<path class="st4" d="M328.4,169.5L186.5,312.6l0.3-0.3l-0.1,0l-35.2-34.7c73.4-91.3,120.8-108.3,120.8-108.3s30.9-12.1,52.9-2.7
		C327,167.6,327.8,168.1,328.4,169.5"/>
	<path class="st2" d="M328.4,169.5l-1.3-1.3L185.2,311.3c-0.7,0.7-0.7,1.9,0,2.6c0.7,0.7,1.9,0.7,2.6,0l0.3-0.3
		c0.6-0.6,0.7-1.6,0.3-2.3c-0.5-0.7-1.4-1.1-2.2-0.7l-0.1,0l0.7,1.7l1.3-1.3l-35.2-34.7l-1.3,1.3l1.5,1.2
		c36.6-45.5,66.7-72.5,87.6-88.1c10.4-7.8,18.6-12.7,24.1-15.7c2.8-1.5,4.9-2.5,6.3-3.1c0.7-0.3,1.2-0.5,1.6-0.7l0.4-0.1l0.1,0l0,0
		l0,0l0.2-0.1c1.7-0.7,16.7-6.1,32.4-6.1c6.5,0,13.1,0.9,19,3.4l0.7-1.7l-0.9,1.6c0.8,0.4,1.3,0.7,1.6,1c0.3,0.2,0.4,0.4,0.6,1
		c0.2,0.6,0.8,1,1.4,1.1c0.6,0.1,1.2-0.1,1.7-0.5l0,0c0.4-0.4,0.5-0.8,0.5-1.3c0-0.5-0.2-1-0.5-1.3c-0.4-0.4-0.8-0.5-1.3-0.5
		c-0.5,0-1,0.2-1.3,0.6L328.4,169.5l-1.3-1.3l0,0L328.4,169.5l1.7-0.7c-0.4-0.9-0.9-1.7-1.6-2.3c-0.7-0.6-1.4-1-2.3-1.5l-0.2-0.1
		c-6.5-2.7-13.6-3.7-20.4-3.7c-17.6,0-33.8,6.4-33.9,6.4l0.7,1.7l-0.6-1.8c-0.4,0.1-48.1,17.4-121.7,108.9c-0.6,0.7-0.5,1.8,0.1,2.5
		l35.2,34.7c0.5,0.5,1.3,0.7,2,0.4l0.1,0l-0.7-1.7l-1.3-1.3l-0.3,0.3l1.3,1.3l1.3,1.3l141.9-143.1c0.7-0.7,0.7-1.9,0-2.6
		c-0.7-0.7-1.9-0.7-2.6,0L328.4,169.5z"/>
	<path class="st1" d="M226.6,352c-33.8,27.9-77.2,71.7-136,102.2l13.1,56l-55.5-54.7l138.4-142.8"/>
	<path class="st2" d="M225.4,350.5c-34,28-77.1,71.6-135.7,102c-0.8,0.4-1.2,1.3-1,2.1l11.6,49.7l-49.6-48.8l137.1-141.5
		c0.7-0.7,0.7-1.9,0-2.6s-1.9-0.7-2.6,0L46.8,454.2c-0.7,0.7-0.7,1.9,0,2.6l55.5,54.7c0.6,0.6,1.5,0.7,2.2,0.3
		c0.7-0.4,1.1-1.2,0.9-2.1l-13.1-56l-1.8,0.4l0.9,1.7c59.2-30.7,102.6-74.6,136.4-102.4c0.8-0.7,0.9-1.8,0.3-2.6
		C227.3,350,226.2,349.9,225.4,350.5L225.4,350.5z"/>
	<polygon class="st0" points="152.5,278.2 186.9,312.4 107.5,329.6 151.8,277.5 152.5,278.2 	"/>
	<path class="st2" d="M152.5,278.2l-1.3,1.3l32,31.8l-70.7,15.3l40.7-47.9l-1.4-1.2l-1.2,1.5l0.8,0.6L152.5,278.2l0-1.9h0
		c-0.8,0-1.4,0.5-1.7,1.2c-0.3,0.7-0.1,1.5,0.4,2L152.5,278.2v1.9h0c0.8,0,1.5-0.5,1.8-1.2c0.3-0.7,0-1.6-0.6-2.1l-0.8-0.6
		c-0.8-0.6-1.9-0.5-2.6,0.2L106,328.4c-0.5,0.6-0.6,1.5-0.2,2.2s1.2,1,2,0.9l79.4-17.2c0.7-0.1,1.2-0.6,1.4-1.3s0-1.4-0.5-1.8
		l-34.4-34.2L152.5,278.2v1.9V278.2z"/>
	<path class="st1" d="M314.8,128c-3.4,30.4,18.5,57.8,49,61.2c30.4,3.4,57.8-18.6,61.2-49c3.4-30.4-18.6-57.9-49-61.2
		C345.6,75.6,318.2,97.5,314.8,128"/>
	<path class="st2" d="M314.8,128l-1.9-0.2c-0.2,2.1-0.4,4.3-0.4,6.4c0,28.8,21.7,53.6,51,56.9l0,0c2.1,0.2,4.3,0.4,6.4,0.4
		c28.8,0,53.6-21.7,56.9-51c0.2-2.1,0.4-4.3,0.4-6.4c0-28.8-21.7-53.7-51-56.9l0,0c-2.1-0.2-4.3-0.4-6.4-0.4
		c-28.8,0-53.7,21.7-56.9,51L314.8,128l1.9,0.2c3-27.4,26.3-47.7,53.2-47.7c2,0,4,0.1,6,0.3l0,0c27.4,3,47.7,26.3,47.7,53.2
		c0,2-0.1,4-0.3,6c-3.1,27.4-26.3,47.7-53.2,47.7c-2,0-4-0.1-6-0.3l0,0c-27.4-3.1-47.7-26.3-47.7-53.2c0-2,0.1-4,0.3-6L314.8,128z"
		/>
	<path class="st3" d="M417.1,164.8c10.2-14.9,9.7-37.3,7.6-43.9c-2.5-8.1-8.2-21.3-18-28.2l-52,47.9c0,0,40,42.9,41,43.1
		C396.2,183.7,407.8,178.4,417.1,164.8"/>
	<path class="st2" d="M417.1,164.8l1.5,1.1c7.1-10.5,9.2-24,9.2-33.9c0-5-0.5-9.1-1.3-11.6c-1.3-4.2-3.4-9.6-6.4-14.9
		c-3-5.3-7.1-10.6-12.3-14.2c-0.7-0.5-1.7-0.4-2.3,0.2l-52,47.9c-0.4,0.3-0.6,0.8-0.6,1.3s0.2,1,0.5,1.3c0,0,10,10.7,20.1,21.5
		c5.1,5.4,10.2,10.8,14.1,14.8c2,2,3.6,3.7,4.8,4.9c0.6,0.6,1.1,1.1,1.5,1.4c0.2,0.2,0.4,0.3,0.5,0.5l0.3,0.2l0.2,0.1
		c0.1,0.1,0.3,0.1,0.6,0.2l0.1,0l0.2,0c0.4,0,0.5-0.1,0.6-0.1c0.4-0.1,0.7-0.2,1.2-0.5c1.7-0.8,4.9-2.6,8.7-5.7
		c3.9-3.1,8.3-7.5,12.4-13.4L417.1,164.8l-1.5-1.1c-4.5,6.6-9.5,11.2-13.5,14.1c-2,1.5-3.7,2.5-4.9,3.2c-0.6,0.3-1.1,0.6-1.4,0.7
		l-0.3,0.1l0,0l0.2,0.7l-0.2-0.7l-0.1,0l0.2,0.7l-0.2-0.7l0.4,1.6v-1.6c-0.3,0-0.3,0-0.4,0l0.4,1.6v-1.6v1.8l0.2-1.8l-0.2,0v1.8
		l0.2-1.8l-0.2,1.9l0.3-1.8l-0.2,1.7l0.8-1.6c-0.1,0-0.2-0.1-0.5-0.2l-0.2,1.7l0.8-1.6L396,183l0.7-1l-0.2-0.1L396,183l0.7-1
		c0,0-0.3-0.3-0.7-0.7c-1.6-1.5-4.9-4.9-8.9-9.1c-6.1-6.4-13.8-14.6-20-21.3c-3.1-3.3-5.8-6.3-7.8-8.4c-2-2.1-3.1-3.4-3.1-3.4
		l-1.4,1.3l1.3,1.4L408,94l-1.3-1.4l-1.1,1.5c4.6,3.2,8.3,8,11.2,13c2.9,5,4.9,10.2,6.1,14.2c0.6,1.9,1.1,5.8,1.1,10.5
		c0,9.4-2,22.4-8.5,31.8L417.1,164.8z M406.6,127.2l-1.7,0.7l0,0c0.2,0.4,1.7,4.6,1.7,9.6c0,3.4-0.7,7.1-2.9,10.4l1.6,1l1.9,0.1
		l1.3-21.8L406.6,127.2l-1.7,0.7L406.6,127.2l-1.9-0.1l-1.3,21.8c-0.1,0.8,0.5,1.6,1.3,1.9c0.8,0.3,1.7,0,2.1-0.7
		c2.7-4.1,3.5-8.6,3.5-12.5c0-6.2-2-10.9-2-11.1c-0.3-0.8-1.2-1.3-2-1.1c-0.9,0.1-1.5,0.9-1.6,1.7L406.6,127.2z"/>
	<polyline class="st3" points="211.6,336.1 154.2,346.3 188.8,310.3 	"/>
	<path class="st2" d="M211.2,334.2l-51.7,9.2l30.7-31.8c0.7-0.7,0.7-1.9-0.1-2.6c-0.7-0.7-1.9-0.7-2.6,0.1l-34.6,36
		c-0.6,0.6-0.7,1.5-0.3,2.2c0.4,0.7,1.2,1.1,2,1l57.4-10.2c1-0.2,1.7-1.1,1.5-2.2S212.3,334.1,211.2,334.2L211.2,334.2z
		 M152.6,279.8l73,68.7c0.8,0.7,1.9,0.7,2.6-0.1c0.7-0.8,0.7-1.9-0.1-2.6l-73-68.7c-0.8-0.7-1.9-0.7-2.6,0.1
		C151.8,277.9,151.8,279.1,152.6,279.8z"/>
</g>
</svg>
