<?xml version="1.0" encoding="utf-8"?>
<!-- Generator: Adobe Illustrator 24.1.1, SVG Export Plug-In . SVG Version: 6.00 Build 0)  -->
<svg version="1.1" id="Layer_1" xmlns="http://www.w3.org/2000/svg" xmlns:xlink="http://www.w3.org/1999/xlink" x="0px" y="0px"
	 viewBox="0 0 512 512" style="enable-background:new 0 0 512 512;" xml:space="preserve">
<style type="text/css">
	.st0{fill:#95BF46;}
	.st1{fill:#5E8E3E;}
	.st2{fill:#FFFFFF;}
</style>
<g>
	<path class="st0" d="M425.2,99.7c-0.4-2.6-2.6-4-4.5-4.2c-1.9-0.2-41.2-3.1-41.2-3.1s-27.3-27.1-30.3-30.1c-3-3-8.9-2.1-11.1-1.4
		c-0.3,0.1-6,1.8-15.3,4.7c-9.1-26.3-25.2-50.4-53.6-50.4c-0.8,0-1.6,0-2.4,0.1C258.7,4.6,248.7,0,240.1,0
		c-66,0-97.6,82.5-107.5,124.5c-25.7,8-43.9,13.6-46.2,14.3c-14.3,4.5-14.8,4.9-16.7,18.4c-1.4,10.2-38.9,300-38.9,300l292,54.7
		l158.2-34.2C481.1,477.8,425.6,102.3,425.2,99.7z M306.6,70.6c-7.3,2.3-15.7,4.8-24.7,7.6c0-1.7,0-3.5,0-5.3
		c0-16.3-2.3-29.5-5.9-39.9C290.6,34.9,300.4,51.5,306.6,70.6z M257.9,36.3c4.1,10.2,6.7,24.8,6.7,44.5c0,1,0,1.9,0,2.9
		c-16.1,5-33.5,10.4-51,15.8C223.4,61.5,241.8,43.2,257.9,36.3z M238.3,17.7c2.9,0,5.7,1,8.5,2.9c-21.2,10-43.8,35-53.4,85.1
		c-14,4.3-27.7,8.6-40.3,12.5C164.2,80,190.9,17.7,238.3,17.7z"/>
	<path class="st1" d="M420.7,95.5c-1.9-0.2-41.2-3.1-41.2-3.1s-27.3-27.1-30.3-30.1c-1.1-1.1-2.6-1.7-4.2-1.9L322.9,512l158.2-34.2
		c0,0-55.5-375.5-55.9-378.1C424.9,97.1,422.6,95.7,420.7,95.5"/>
	<path class="st2" d="M269.2,183l-19.5,58c0,0-17.1-9.1-38-9.1c-30.7,0-32.3,19.3-32.3,24.1c0,26.5,69.1,36.7,69.1,98.7
		c0,48.8-31,80.3-72.8,80.3c-50.1,0-75.8-31.2-75.8-31.2l13.4-44.3c0,0,26.3,22.6,48.6,22.6c14.5,0,20.4-11.4,20.4-19.8
		c0-34.6-56.7-36.1-56.7-92.9c0-47.8,34.3-94.1,103.6-94.1C256,175.3,269.2,183,269.2,183"/>
</g>
</svg>
