<?xml version="1.0" encoding="utf-8"?>
<!-- Generator: Adobe Illustrator 24.1.1, SVG Export Plug-In . SVG Version: 6.00 Build 0)  -->
<svg version="1.1" id="Layer_1" xmlns="http://www.w3.org/2000/svg" xmlns:xlink="http://www.w3.org/1999/xlink" x="0px" y="0px"
	 viewBox="0 0 512 512" style="enable-background:new 0 0 512 512;" xml:space="preserve">
<style type="text/css">
	.st0{fill-rule:evenodd;clip-rule:evenodd;fill:#FFFFFF;filter:url(#Adobe_OpacityMaskFilter);}
	.st1{mask:url(#mask0_2_);}
	.st2{fill:#0065A9;}
	.st3{fill:#007ACC;}
	.st4{fill:#1F9CF0;}
	.st5{opacity:0.25;}
	.st6{fill-rule:evenodd;clip-rule:evenodd;fill:url(#SVGID_1_);}
</style>
<defs>
	<filter id="Adobe_OpacityMaskFilter" filterUnits="userSpaceOnUse" x="0" y="1.5" width="512" height="509.1">
		<feColorMatrix  type="matrix" values="1 0 0 0 0  0 1 0 0 0  0 0 1 0 0  0 0 0 1 0"/>
	</filter>
</defs>
<mask maskUnits="userSpaceOnUse" x="0" y="1.5" width="512" height="509.1" id="mask0_2_">
	<path class="st0" d="M363.2,508.3c8.1,3.1,17.2,2.9,25.4-1l105.3-50.7c11.1-5.3,18.1-16.5,18.1-28.8V84.1c0-12.3-7-23.5-18.1-28.8
		L388.5,4.6c-10.7-5.1-23.2-3.9-32.5,2.9c-1.3,1-2.6,2.1-3.8,3.3l-201.7,184l-87.8-66.7c-8.2-6.2-19.6-5.7-27.2,1.2L7.3,155
		c-9.3,8.5-9.3,23.1,0,31.5L83.4,256L7.3,325.5C-2,334-2,348.6,7.3,357l28.2,25.6c7.6,6.9,19,7.4,27.2,1.2l87.8-66.7l201.7,184
		C355.4,504.4,359.1,506.8,363.2,508.3z M384.2,139.8L231.1,256l153,116.2V139.8z"/>
</mask>
<g class="st1">
	<path class="st2" d="M493.9,55.4L388.5,4.6c-12.2-5.9-26.8-3.4-36.4,6.2L7,325.5c-9.3,8.5-9.3,23.1,0,31.5l28.2,25.6
		c7.6,6.9,19,7.4,27.2,1.2L478,68.6c13.9-10.6,34-0.6,34,16.9v-1.2C512,71.9,505,60.7,493.9,55.4z"/>
	<g>
		<path class="st3" d="M493.9,456.6l-105.4,50.8c-12.2,5.9-26.8,3.4-36.4-6.2L7,186.5c-9.3-8.5-9.3-23.1,0-31.5l28.2-25.6
			c7.6-6.9,19-7.4,27.2-1.2L478,443.4c13.9,10.6,34,0.6,34-16.9v1.2C512,440.1,505,451.3,493.9,456.6z"/>
	</g>
	<g>
		<path class="st4" d="M388.5,507.4c-12.2,5.9-26.8,3.4-36.4-6.2c11.8,11.8,32,3.4,32-13.2V24.1c0-16.7-20.2-25-32-13.2
			c9.6-9.6,24.2-12.1,36.4-6.2l105.4,50.7C505,60.6,512,71.8,512,84.1v343.7c0,12.3-7,23.5-18.1,28.8L388.5,507.4z"/>
	</g>
	<g class="st5">
		
			<linearGradient id="SVGID_1_" gradientUnits="userSpaceOnUse" x1="255.8441" y1="510.5247" x2="255.8441" y2="1.475" gradientTransform="matrix(1 0 0 -1 0 512)">
			<stop  offset="0" style="stop-color:#FFFFFF"/>
			<stop  offset="1" style="stop-color:#FFFFFF;stop-opacity:0"/>
		</linearGradient>
		<path class="st6" d="M362.8,508.3c8.1,3.1,17.2,2.9,25.4-1l105.3-50.7c11.1-5.3,18.1-16.5,18.1-28.8V84.1c0-12.3-7-23.5-18.1-28.8
			L388.2,4.6c-10.7-5.1-23.2-3.9-32.5,2.9c-1.3,1-2.6,2.1-3.8,3.3l-201.7,184l-87.8-66.7c-8.2-6.2-19.6-5.7-27.2,1.2L7,155
			c-9.3,8.5-9.3,23.1,0,31.5L83.1,256L7,325.5c-9.3,8.5-9.3,23.1,0,31.5l28.2,25.6c7.6,6.9,19,7.4,27.2,1.2l87.8-66.7l201.7,184
			C355.1,504.4,358.8,506.8,362.8,508.3z M383.8,139.8L230.8,256l153,116.2V139.8z"/>
	</g>
</g>
</svg>
