<?xml version="1.0" encoding="utf-8"?>
<!-- Generator: Adobe Illustrator 19.0.0, SVG Export Plug-In . SVG Version: 6.00 Build 0)  -->
<svg version="1.1" id="Layer_1" xmlns="http://www.w3.org/2000/svg" xmlns:xlink="http://www.w3.org/1999/xlink" x="0px" y="0px"
	 viewBox="0 0 500 500" style="enable-background:new 0 0 500 500;" xml:space="preserve">
<style type="text/css">
	.st0{fill:#9B5C8F;}
	.st1{fill:#FFFFFF;}
</style>
<g id="XMLID_1_">
	<path id="XMLID_3_" class="st0" d="M101.4,141.4h297.1c18.8,0,34,15.2,34,34v113.4c0,18.8-15.2,34-34,34H291.9l14.6,35.8
		l-64.3-35.8H101.5c-18.8,0-34-15.2-34-34V175.4C67.4,156.7,82.6,141.4,101.4,141.4z"/>
	<path id="XMLID_9_" class="st1" d="M88.3,172.4c2.1-2.8,5.2-4.3,9.3-4.6c7.6-0.6,11.9,3,12.9,10.7c4.6,31,9.6,57.3,15,78.8
		l32.5-61.9c3-5.6,6.7-8.6,11.1-8.9c6.5-0.4,10.5,3.7,12.2,12.5c3.7,19.7,8.5,36.5,14.1,50.7c3.9-37.7,10.4-64.8,19.6-81.6
		c2.2-4.2,5.5-6.2,9.8-6.5c3.4-0.3,6.5,0.7,9.3,3c2.8,2.2,4.3,5,4.6,8.5c0.1,2.7-0.3,4.9-1.5,7.1c-5.8,10.7-10.5,28.6-14.4,53.6
		c-3.7,24.2-5,43-4.2,56.5c0.3,3.7-0.3,7-1.8,9.8c-1.8,3.3-4.5,5-7.9,5.3c-3.9,0.3-7.9-1.5-11.7-5.5c-13.8-14.1-24.8-35.2-32.8-63.2
		c-9.6,19-16.8,33.2-21.4,42.7c-8.8,16.8-16.2,25.4-22.4,25.8c-4,0.3-7.4-3.1-10.4-10.2c-7.6-19.4-15.7-57-24.5-112.6
		C85.3,178.5,86.2,175,88.3,172.4z M407.1,195.7c-5.3-9.3-13.2-15-23.7-17.2c-2.8-0.6-5.5-0.9-8-0.9c-14.2,0-25.8,7.4-34.9,22.3
		c-7.7,12.6-11.6,26.6-11.6,41.8c0,11.4,2.4,21.2,7.1,29.4c5.3,9.3,13.2,15,23.7,17.2c2.8,0.6,5.5,0.9,8,0.9
		c14.4,0,26-7.4,34.9-22.3c7.7-12.8,11.6-26.7,11.6-42C414.4,213.3,411.9,203.7,407.1,195.7z M388.4,236.8
		c-2.1,9.8-5.8,17.1-11.3,22c-4.3,3.9-8.3,5.5-12,4.7c-3.6-0.7-6.5-3.9-8.8-9.6c-1.8-4.6-2.7-9.2-2.7-13.5c0-3.7,0.3-7.4,1-10.8
		c1.3-6.1,3.9-12,7.9-17.7c4.9-7.3,10.1-10.2,15.4-9.2c3.6,0.7,6.5,3.9,8.8,9.6c1.8,4.6,2.7,9.2,2.7,13.5
		C389.5,229.6,389.2,233.4,388.4,236.8z M314.3,195.7c-5.3-9.3-13.4-15-23.7-17.2c-2.8-0.6-5.5-0.9-8-0.9
		c-14.2,0-25.8,7.4-34.9,22.3c-7.7,12.6-11.6,26.6-11.6,41.8c0,11.4,2.4,21.2,7.1,29.4c5.3,9.3,13.2,15,23.7,17.2
		c2.8,0.6,5.5,0.9,8,0.9c14.4,0,26-7.4,34.9-22.3c7.7-12.8,11.6-26.7,11.6-42C321.4,213.3,319,203.7,314.3,195.7z M295.4,236.8
		c-2.1,9.8-5.8,17.1-11.3,22c-4.3,3.9-8.3,5.5-12,4.7c-3.6-0.7-6.5-3.9-8.8-9.6c-1.8-4.6-2.7-9.2-2.7-13.5c0-3.7,0.3-7.4,1-10.8
		c1.3-6.1,3.9-12,7.9-17.7c4.9-7.3,10.1-10.2,15.4-9.2c3.6,0.7,6.5,3.9,8.8,9.6c1.8,4.6,2.7,9.2,2.7,13.5
		C296.6,229.6,296.2,233.4,295.4,236.8z"/>
</g>
</svg>
