<?xml version="1.0" encoding="utf-8"?>
<!-- Generator: Adobe Illustrator 24.1.1, SVG Export Plug-In . SVG Version: 6.00 Build 0)  -->
<svg version="1.1" id="Layer_1" xmlns="http://www.w3.org/2000/svg" xmlns:xlink="http://www.w3.org/1999/xlink" x="0px" y="0px"
	 viewBox="0 0 512 512" style="enable-background:new 0 0 512 512;" xml:space="preserve">
<style type="text/css">
	.st0{fill:#FDBD39;}
	.st1{fill:#F69833;}
	.st2{fill:#FECF33;}
	.st3{fill:#EE6723;}
</style>
<g>
	<path class="st0" d="M78.9,333.5l-26.8,9.8L50.7,423l92.7-33.9C111.6,378.5,88.4,359.7,78.9,333.5"/>
	<path class="st1" d="M92.9,249.3L0,283.2l52.1,60.1l26.8-9.8C69.5,307.5,75.3,278.1,92.9,249.3"/>
	<path class="st2" d="M249.3,134.3C131,177.5,54.7,266.7,78.9,333.5L507.5,177C483.2,110.2,367.7,91.1,249.3,134.3"/>
	<path class="st3" d="M337.1,376.2C455.4,333,531.8,244.2,507.5,177L78.9,333.5C103.3,400.8,218.7,419.5,337.1,376.2"/>
	<path class="st1" d="M507.5,177L78.9,333.5c8.4,23.1,40.4,34.5,85.3,34.5c43.8,0,99.8-10.8,158.2-32.2
		C440.8,292.7,524,222.7,507.5,177"/>
	<path class="st0" d="M422.2,142.4c-43.8,0-99.8,10.8-158.2,32.2c-118.3,43.2-201.6,113.2-185,158.9L507.5,177
		C499.1,153.8,467.1,142.4,422.2,142.4"/>
	<path class="st3" d="M398.5,427.2L398.5,427.2c-12.6,0-31.2-11.4-55.3-33.8c-28.5-26.6-61.1-65.5-91.9-109.6
		c-30.8-44.1-56-88.2-71.2-124.1c-16.5-39.2-18.8-63.3-7-71.6c2.6-1.8,5.7-2.8,9.3-2.8c9.6,0,28.4,7.2,63.2,41.4l0.8,0.7l-0.1,1.1
		c-0.2,2.5-0.5,4.9-0.7,7.4l-0.4,4.8l-3.4-3.4c-37.4-37.7-53.9-41.8-59.3-41.8c-1.5,0-2.7,0.3-3.6,0.9c-5.1,3.6-5.5,21.3,10.5,59.3
		c14.9,35.3,39.8,78.7,70.1,122.3c30.4,43.5,62.5,81.9,90.5,108c30.2,28.1,43.8,31.2,48.2,31.2c1.5,0,2.8-0.3,3.7-1
		c5.4-3.8,5.4-22.8-12.4-63.7l-0.8-1.9l1.8-1c1.8-1,3.5-1.9,5.2-2.9l2.1-1.2l1,2.3c12.6,29,24.5,65.8,9,76.7
		C405.3,426.3,402.1,427.2,398.5,427.2z M398.5,422.8L398.5,422.8l0,2.2L398.5,422.8z"/>
	<path class="st3" d="M339.9,375l-0.2,2.2c-3,37-10.9,81.5-31.4,83.3c-0.4,0-0.8,0.1-1.3,0.1c-14,0-27.2-20-39.2-59.4
		c-11.4-37.3-20.3-87.4-25-141c-4.7-53.6-4.6-104.5,0.2-143.2c5.2-42.2,15.2-64.3,29.6-65.5c0.4,0,0.9-0.1,1.3-0.1
		c10.1,0,25.4,11.5,41,64.8l-10.2,2c-5.2-17.8-10.9-32.4-16.5-42.3C283,66.6,278,61.6,274,61.6l-0.4,0c-6.2,0.5-15.4,15.7-20.4,56.6
		c-4.7,38-4.8,88.1-0.2,141.1c4.6,52.9,13.3,102.3,24.6,138.9c5,16.4,10.5,29.9,15.9,39.1c5,8.5,9.8,13.1,13.6,13.1l0.4,0
		c6-0.5,17.2-16.3,22-71.8L339.9,375"/>
</g>
</svg>
